<?xml version="1.0" encoding="UTF-8" standalone="no"?>
<svg
   id="Layer_2"
   data-name="Layer 2"
   viewBox="0 0 850.39 850.39"
   version="1.1"
   sodipodi:docname="dvops.svg"
   inkscape:version="1.2.2 (b0a8486541, 2022-12-01)"
   xmlns:inkscape="http://www.inkscape.org/namespaces/inkscape"
   xmlns:sodipodi="http://sodipodi.sourceforge.net/DTD/sodipodi-0.dtd"
   xmlns="http://www.w3.org/2000/svg"
   xmlns:svg="http://www.w3.org/2000/svg">
  <defs
     id="defs1204" />
  <sodipodi:namedview
     id="namedview1202"
     pagecolor="#ffffff"
     bordercolor="#000000"
     borderopacity="0.25"
     inkscape:showpageshadow="2"
     inkscape:pageopacity="0.0"
     inkscape:pagecheckerboard="0"
     inkscape:deskcolor="#d1d1d1"
     showgrid="false"
     inkscape:zoom="1.2076812"
     inkscape:cx="424.78099"
     inkscape:cy="425.19501"
     inkscape:window-width="1642"
     inkscape:window-height="1283"
     inkscape:window-x="907"
     inkscape:window-y="42"
     inkscape:window-maximized="1"
     inkscape:current-layer="Layer_2" />
  <path
     d="M361.37,193.68c3.34,0,3.35-5.19,0-5.19s-3.35,5.19,0,5.19Z"
     id="path1111"
     style="fill:#ffffff" />
  <path
     d="M361.37,193.68l6.65-.88c1.73-.23,3.36-.59,4.37-2.18.87-1.36.76-2.9.76-4.44a9.46,9.46,0,0,1,.47-3.85,6.72,6.72,0,0,1,3.66-3.43l.56-.24.61-.25,1.8-.73c1.37-.53,2.74-1,4.12-1.53,16.06-5.67,33.31-8.33,50.31-6.53a90.1,90.1,0,0,1,15.6,3.09q4.1,1.2,8.06,2.77c2,.81,4.41,1.55,5.89,3.26,1.72,2,1.62,4.78,1.88,7.24l.87,8.42q2.34,22.64,4.59,45.29,1.06,10.83,2.08,21.66c.26,2.79.52,5.58.75,8.37a29.58,29.58,0,0,1-.29,7.75,50.48,50.48,0,0,1-2,6.92c-1.57,4.67-3.25,9.3-5.14,13.85-1.66,4-3.21,8.15-7.12,10.41-3,1.73-6.09,1.56-9.41,1.3-2.6-.2-5.21-.38-7.81-.53-17.61-1.06-35.27-1.3-52.91-1.13-1.73,0-3.68.29-4.58-1.54a16.82,16.82,0,0,1-.86-2.91c-.66-2.42-1.32-4.85-2-7.28q-2.7-10.15-5.13-20.37a493.43,493.43,0,0,1-9.85-50.83c-.52-4-.95-8-1.25-12a58.47,58.47,0,0,0-.5-6.06,13.65,13.65,0,0,0-2.93-6.13,13.45,13.45,0,0,0-9.81-4.72,15.94,15.94,0,0,0-7.53,2c-3.79,1.82-7.39,4.09-11,6.2-2.89,1.67-.28,6.15,2.62,4.48,3.71-2.14,7.37-4.47,11.25-6.31.13-.06,1.17-.51.65-.3.27-.11.53-.21.8-.3a13,13,0,0,1,1.75-.49c.11,0,.23,0,.35-.06.37-.08-.66,0-.08,0,.23,0,.46,0,.7,0l.78,0c.12,0,.24,0,.35,0s-.56-.13,0,0a9,9,0,0,1,4.19,1.79,8.5,8.5,0,0,1,2.8,4.67,39.15,39.15,0,0,1,.44,5.53c.16,2.05.35,4.11.57,6.16,1.88,17.53,5.4,34.88,9.36,52.05q2.57,11.14,5.45,22.21,1.08,4.19,2.22,8.35c.62,2.32,1,5.18,2.31,7.23a8.18,8.18,0,0,0,6.22,3.8c2.77.26,5.67,0,8.46,0q7.92,0,15.85.07c8.37.12,16.73.35,25.09.76,5.48.27,10.94.67,16.41,1.07a17,17,0,0,0,12.83-4.63c3.62-3.44,5.3-8.6,7.11-13.13s3.45-9.15,5-13.8a37,37,0,0,0,1.7-14.89c-.55-6.42-1.16-12.83-1.78-19.24Q475.45,226,473,202.4q-.92-9-1.86-18c-.13-1.32-.21-2.67-.46-4a11.31,11.31,0,0,0-3.39-6c-2-1.85-4.62-2.78-7.12-3.78s-5.33-2-8.06-2.82c-18.9-5.61-39.21-4.91-58.19,0a129.55,129.55,0,0,0-18.47,6.27A11.62,11.62,0,0,0,368,184a30.72,30.72,0,0,0,0,3.59c0,.08-.06.41,0,.46-.27-.23.6-.54.65-.56s.14,0-.07,0l-.68.09-6.49.86a2.68,2.68,0,0,0-2.6,2.6c0,1.26,1.2,2.78,2.6,2.59Z"
     id="path1113"
     style="fill:#ffffff" />
  <path
     d="M244.33,582.07a31.91,31.91,0,0,1-1.82-2.89c-.67-1.15-1.3-2.33-1.89-3.52-.4-.79-.78-1.6-1.16-2.4-.18-.41-.37-.81-.55-1.22-.09-.21-.18-.43-.28-.64s-.47-1.12-.13-.31a114,114,0,0,1-4.91-14.5c-.82-3.1-1.53-6.24-2.13-9.39q-.51-2.66-.91-5.31c-.3-2-.46-3.14-.69-5.27-2.18-19.43-.81-39.18,2.82-58.35a259.2,259.2,0,0,1,7.45-29.84c.22-.7-.18.38,0,.07s.23-.51.34-.77q.48-1.05,1-2.07a50.3,50.3,0,0,1,3.28-5.39c.36-.51.74-1,1.12-1.52.23-.31-.4.5,0,0l.35-.44c.24-.3.49-.6.74-.89a40.71,40.71,0,0,1,2.9-3.12,31.74,31.74,0,0,1,7.29-5.5q1-.58,2.13-1.11a17.89,17.89,0,0,1,2.1-.9,34.16,34.16,0,0,1,5.24-1.53,38.52,38.52,0,0,1,12.36-.34,50.76,50.76,0,0,1,6.92,1.45c3.23.88,4.6-4.12,1.38-5-8.77-2.41-18.27-2.88-26.92.29a40.85,40.85,0,0,0-16.69,11.65,50.07,50.07,0,0,0-7.54,11.48c-.4.86-.81,1.74-1.13,2.64a186.13,186.13,0,0,0-5,18.6c-4.86,20.82-7.41,42.4-5.92,63.78.93,13.37,3.35,26.78,8.11,39.33,2,5.27,4.29,10.75,7.57,15.38l.12.17a2.67,2.67,0,0,0,3.55.93,2.61,2.61,0,0,0,.93-3.55Z"
     id="path1115"
     style="fill:#ffffff" />
  <path
     d="M368.05,187.41a116.49,116.49,0,0,0-2.52,13.49,151.4,151.4,0,0,0-1.23,31.7,112.6,112.6,0,0,0,3.49,21.12c.88,3.22,5.88,1.86,5-1.38-5.18-19.12-4.58-40-.75-59.05.3-1.51.62-3,1-4.5.85-3.23-4.15-4.61-5-1.38Z"
     id="path1117"
     style="fill:#ffffff" />
  <path
     d="M386.75,195.13l3.7,27.81c.46,3.44.93,6.87,1.37,10.31s.43,7,.55,10.51l1.15,33.31c0,1,.06,2,.11,3,.19,4.19,2.07,8.55,5.92,10.6a10,10,0,0,0,6.22.87c2.08-.24,4.17-.44,6.26-.62,5.22-.43,10.47-.66,15.71-.65a148.87,148.87,0,0,1,18.15,1.11,9.69,9.69,0,0,0,6.71-1.11,11.34,11.34,0,0,0,4.37-5.34c1-2.48,1-5.15,1.18-7.79l.47-8.74.1-1.84c.18-3.34-5-3.33-5.19,0-.24,4.45-.47,8.9-.72,13.34a9.54,9.54,0,0,1-.59,3,5.52,5.52,0,0,1-3.26,3.32,6,6,0,0,1-2.58,0c-1.54-.21-3.1-.38-4.65-.53q-4.32-.41-8.66-.55c-5.42-.19-10.86-.1-16.28.22-4.22.24-8.4.86-12.62,1.14a4.22,4.22,0,0,1-3.74-1.78,8.24,8.24,0,0,1-1.61-4.66c0-.86-.06-1.72-.09-2.57l-1.11-32.11c-.1-2.82-.19-5.63-.3-8.45-.14-3.76-.82-7.53-1.31-11.26l-4-29.93-.09-.65a2.68,2.68,0,0,0-2.59-2.6c-1.26,0-2.78,1.2-2.6,2.6Z"
     id="path1119"
     style="fill:#ffffff" />
  <path
     d="M382.71,356.22A292.62,292.62,0,0,0,380,392.56a129.24,129.24,0,0,0,1.36,20.89,54.71,54.71,0,0,0,1.95,8.47c.4,1.21.86,2.2,2.17,2.6.23.07.47.11.7.17,8.61,2.05,17.37,3.53,26.13,4.76q11.88,1.68,23.83,2.6,6.82.52,13.68.77,3.6.14,7.2.19c1.44,0,2.85.08,3.72-1.29a25.19,25.19,0,0,0,2.53-7.1,129.69,129.69,0,0,0,3.17-24c.4-6.83.51-13.66.45-20.5q-.06-6.49-.3-13c-.05-1.18-.09-2.37-.15-3.55s.13-2.81-.36-3.92a2.75,2.75,0,0,0-.58-.88c-1.9-1.85-5-2.82-7.43-3.67-7.3-2.61-15.06-3.89-22.72-4.9-6.41-.84-12.85-1.37-19.3-1.72-4.08-.22-8.16-.36-12.23-.45-2.27,0-4.53-.08-6.8-.09a39.07,39.07,0,0,0-7,.18,9.14,9.14,0,0,0-7.24,7.42,2.68,2.68,0,0,0,1.82,3.19,2.61,2.61,0,0,0,3.19-1.81,4.15,4.15,0,0,1,2.95-3.65,13.13,13.13,0,0,1,3.44-.15l4.71,0c5.21.05,10.43.19,15.64.45,4.44.22,8.89.53,13.32.95,3.56.35,6.94.75,10.1,1.22a117.67,117.67,0,0,1,14.88,3.1c1.55.45,3.1.94,4.61,1.51l.87.34.4.16c.62.25-.57-.25-.07,0s.88.39,1.32.61a17.15,17.15,0,0,1,1.88,1c.14.09.28.21.43.29.32.19-.67-.53-.38-.29l-.76-1.83c.78,16.07,1.09,32.31-.53,48.35-.12,1.26-.26,2.53-.42,3.79,0,.27-.07.55-.11.82.08-.58,0,.08,0,.31-.08.57-.17,1.14-.25,1.71-.28,1.79-.6,3.58-1,5.35a48.37,48.37,0,0,1-1.83,6.59l-.21.54c-.21.55-.08.13.06-.13-.12.21-.2.45-.3.66s-.17.33-.27.49l2.24-1.29a337,337,0,0,1-67.31-7.33c-1.47-.32-2.94-.64-4.4-1l1.81,1.81c-2.86-8.23-3.29-17-3.38-25.7a255.25,255.25,0,0,1,1.37-27.92q.56-5.74,1.3-11.46c.18-1.39-1.32-2.59-2.59-2.59A2.66,2.66,0,0,0,382.71,356.22Z"
     id="path1121"
     style="fill:#ffffff" />
  <path
     d="M398.19,362.05l-.68,15.63-1.08,24.92-.25,5.7a2.63,2.63,0,0,0,2.6,2.6l16.46.54,26.39.87,6,.2a2.59,2.59,0,0,0,2.5-1.91l4.76-33.48.67-4.73a2.67,2.67,0,0,0-1.81-3.19c-1.21-.34-3,.41-3.19,1.81l-4.76,33.49-.67,4.72,2.5-1.9-16.46-.54-26.39-.87-6-.2,2.59,2.59.68-15.63,1.09-24.92.24-5.7c.15-3.34-5-3.34-5.19,0Z"
     id="path1123"
     style="fill:#ffffff" />
  <path
     d="M172.76,376.84l-9.32,10.25c-1.62,1.78-1.95,3.26-2.5,5.56a321.29,321.29,0,0,0-6.25,34.4c-2,15.42-3,31.43-.21,46.82,1.72,9.43,5.84,18.51,9.49,27.33a32.92,32.92,0,0,0,15.27,16.51q7,3.72,13.94,7.42a28.7,28.7,0,0,1,6,3.83c3.08,2.77,4.72,6.24,6.54,9.87a175.39,175.39,0,0,0,11.68,20A140.18,140.18,0,0,0,236,581.36a44.82,44.82,0,0,0,10.2,7.88c1.75.91,3.51,1.8,5.27,2.69l7.83,4c1.55.79,3.33,2,5.09,2.15,4.39.43,7.16-3.77,5.94-7.75-.67-2.16-1.55-4.27-2.29-6.42-9.95-29.11-16-60.22-14.72-91.07.78-18.93,4.57-38,12.87-55.13.85-1.76,1.46-3.75,2.72-5.21a6.86,6.86,0,0,1,.68-.64c.13-.13.28-.24.42-.36.59-.51-.53.36.09-.07a29.47,29.47,0,0,1,3.23-1.95l1-.48c.61-.28-.14.05.08,0l.62-.25c.91-.33,1.83-.64,2.77-.91s2.11-.53,3.18-.73c.57-.11,1.15-.2,1.72-.29.35-.05-.39,0,.37,0,.37,0,.73-.09,1.1-.12a57.66,57.66,0,0,1,9-.1c21.34,1.37,42.77,11.66,61.45,22A466.85,466.85,0,0,1,404,480.69q3.46,2.55,6.9,5.14c2.25,1.69,4.38,3.57,7,4.64,4.09,1.66,9.4,1.44,13.75,1.08,2.27-.19,3.33-1.28,4.91-2.72A231.38,231.38,0,0,1,489.9,452.5a262.78,262.78,0,0,1,53.9-19.61c1.21-.3,3.19-.44,4.23-1.07.09-.05-1-.13-.49-.06a4.89,4.89,0,0,1,.74.16c.43.13.84.28,1.26.43.19.06-.56-.31.21.1.29.15.59.29.87.45a17.9,17.9,0,0,1,1.89,1.22c.18.14-.48-.41.09.08l.52.44c.37.32.72.66,1.06,1s.66.69,1,1.05.37.43.54.64c.45.55-.18-.28.3.39a30.63,30.63,0,0,1,2,3.26,36.41,36.41,0,0,1,3.34,8.83,70.58,70.58,0,0,1,2,13.41c.86,14.59-1.13,29.31-3.9,43.6a293.31,293.31,0,0,1-7.51,31.27c-1.26,4.07-3.74,7.37-6.2,10.75l-19.27,26.47-8.58,11.79c-1.63,2.23-5,5.7-2.31,8.42,1.76,1.75,4.41.84,6.52.39l8.13-1.75c6.29-1.34,12.06-2.76,16.15-8.3,2.17-3,3.55-6.66,5.13-9.94l7.61-15.82c1.41-2.92,2.76-5.87,4.22-8.76,2-4,5.33-5.85,9.09-8s7.3-4.15,10.92-6.28c4.1-2.42,8.18-4.89,12.2-7.45a79.19,79.19,0,0,0,9.92-6.81c4.12-3.62,6.8-9,9.12-13.89,6.59-13.82,11.15-28.65,15.36-43.34q1.37-4.72,2.63-9.48c.95-3.53,2-7.05,2-10.75,0-4.23-1.41-8.05-2.84-11.95q-1.93-5.29-4-10.53c-3.3-8.43-6.8-16.78-10.65-25s-7.82-16.21-12.93-23.53a5.45,5.45,0,0,1-.29-.53c.31.58,0,0-.09-.27-.27-.83-.53-1.66-.76-2.5-.62-2.23-1.13-4.5-1.63-6.77-1.47-6.66-2.73-13.38-3.95-20.09q-2-10.94-3.84-21.89c-1-6-1.76-12.12-3.09-18.06-2.25-10.06-7.38-19.74-12.58-28.57-15.85-26.93-38.72-49.38-64.83-66.35A239.1,239.1,0,0,0,486,194.16a58.68,58.68,0,0,0-9.79-4.12l-6.27-1.73c-3.22-.9-4.6,4.11-1.38,5l6.64,1.84c3.67,1,7.1,2.94,10.5,4.61a239.59,239.59,0,0,1,27.4,15.79,207.61,207.61,0,0,1,39.12,33.82,180.89,180.89,0,0,1,22.51,31.09c5.43,9.55,9.85,18.68,11.61,29.47,2.15,13.13,4.37,26.25,6.81,39.34,1.18,6.3,2.38,12.61,3.83,18.87.9,3.88,1.78,7.36,4,10.71,9.67,14.94,16.6,31.74,23,48.3,2.86,7.43,6.91,15.28,4.85,23.39-1.5,5.93-3.17,11.83-4.91,17.7-4.21,14.28-8.63,29-15.73,42.16a42.14,42.14,0,0,1-4.19,6.61c-2,2.42-4.16,3.72-6.78,5.47-7.6,5.06-15.48,9.71-23.4,14.23-5.84,3.34-11.87,6-15,12.37-1.82,3.72-3.59,7.46-5.38,11.19l-7.43,15.42c-1.83,3.79-3.36,7.94-7,10.36-4.13,2.73-10.2,3.16-14.94,4.18l-3.67.79a7.84,7.84,0,0,0-2,.42c-.1.23,1.14,1.85,1.79,1.47.29-.17.56-.77.75-1L538.22,568c4.73-6.5,9.48-13,14.18-19.49a36,36,0,0,0,5.38-12q2.21-8.09,4.11-16.26c2.07-8.95,3.82-18,5.06-27.08,1.69-12.46,2.59-25.19.8-37.69-1-6.84-2.86-13.92-6.8-19.69a22.74,22.74,0,0,0-8.54-7.81,15.44,15.44,0,0,0-3.08-1.15c-3-.69-6.43.92-9.32,1.66-31.64,8.1-62.1,21.82-88.43,41.24a226,226,0,0,0-18.24,15c-.63.57-1.28,1.14-1.9,1.72-.35.33-.66.39,0,0a.67.67,0,0,0-.14.09c.54-.64.8-.1.34-.19a6.64,6.64,0,0,0-1,0c-4.61.17-9.52.55-13.44-2.24-4.91-3.49-9.63-7.27-14.52-10.8-25.68-18.57-53.32-36.56-83.62-46.61-13.14-4.36-28.24-7.7-42-4.12-4.22,1.1-9.35,3.09-12.21,6.62-2.35,2.9-3.83,7.14-5.3,10.55a130.68,130.68,0,0,0-5,13.7,151.28,151.28,0,0,0-5.46,27.24c-2,17.78-1.07,35.77,1.52,53.44a287.67,287.67,0,0,0,9.8,42.87c1.47,4.74,3.16,9.39,4.76,14.09.86,2.53-.67,1.59-2.14.84l-7.28-3.72-6.28-3.2a37.4,37.4,0,0,1-8.6-6.3A131.11,131.11,0,0,1,222,556.52a174.48,174.48,0,0,1-11.67-19.89c-1.76-3.5-3.36-6.94-6.06-9.86a27.36,27.36,0,0,0-7.27-5.46c-10.21-5.47-22.73-9.91-27.89-21.12-1.92-4.18-3.41-8.6-5.09-12.88a80,80,0,0,1-4.42-14c-2.91-15-1.7-30.89.2-46A307.42,307.42,0,0,1,166,393.81a15.47,15.47,0,0,0,.69-2.8c0-.82-.34.74-.54.81.39-.13,1-1.11,1.27-1.41l9-9.9c2.24-2.46-1.42-6.15-3.67-3.67Z"
     id="path1125"
     style="fill:#ffffff" />
  <path
     d="M332.58,576.47a23.79,23.79,0,0,0,2.92,2.76,66.67,66.67,0,0,0,9.92,6.83c13.55,7.73,29,12,44.29,14.52a249.93,249.93,0,0,0,42.86,3c3.34,0,3.34-5.22,0-5.19-21.91.22-44.21-1.65-65.15-8.44q-2.79-.9-5.54-1.93l-2.34-.91-1-.42-.61-.24c.59.24-.26-.12-.36-.16-2.69-1.16-5.33-2.42-7.91-3.82-2.08-1.13-4.12-2.34-6.08-3.66-.78-.52-1.54-1-2.3-1.6-.31-.24-.62-.48-.94-.71s.54.43.2.16c-.07-.07-.15-.12-.23-.19l-.44-.35a25.73,25.73,0,0,1-3.6-3.32,2.62,2.62,0,0,0-3.67,0,2.65,2.65,0,0,0,0,3.67Z"
     id="path1127"
     style="fill:#ffffff" />
  <path
     d="M440.09,480q-.79,9.33-1.48,18.67-.56,7.43-1,14.87c-.13,2.28-.26,4.56-.37,6.84-.12,2.64-.27,5.3.63,7.85,1.1,3.12,3.24,5.92,4.91,8.77.87,1.49,1.73,3,2.53,4.52.37.68.72,1.37,1.05,2.06.13.27.26.54.38.81s.15.34.22.51c-.09-.22-.08-.2,0,.08a2.67,2.67,0,0,0,3.19,1.81,2.61,2.61,0,0,0,1.81-3.19c-2-5.24-5.19-10.06-8.12-14.83a9.67,9.67,0,0,1-1.52-4,22,22,0,0,1,0-3.44q.13-3.18.33-6.35c.55-9.38,1.27-18.75,2-28.12.19-2.29.37-4.59.57-6.88a2.62,2.62,0,0,0-2.6-2.6,2.65,2.65,0,0,0-2.59,2.6Z"
     id="path1129"
     style="fill:#ffffff" />
  <path
     d="M537,432c.1.6.19,1.2.28,1.8s.21,1.42.31,2.13l.09.62c.09.69-.08-.6,0,.11l.21,1.63c.8,6.29,1.39,12.61,1.84,18.94a423.27,423.27,0,0,1-.2,63.6,365.66,365.66,0,0,1-6.28,44.81,2.65,2.65,0,0,0,1.82,3.19,2.61,2.61,0,0,0,3.19-1.81A393.7,393.7,0,0,0,546,489.69a402.33,402.33,0,0,0-2.75-49.92c-.37-3-.75-6.12-1.26-9.15a2.62,2.62,0,0,0-3.2-1.81A2.65,2.65,0,0,0,537,432Z"
     id="path1131"
     style="fill:#ffffff" />
  <path
     d="M507.33,211c1.28,3.54,2.31,7.18,3.33,10.8,2.8,10,5.06,20.13,6.95,30.33a420,420,0,0,1,5.94,46.45,455.71,455.71,0,0,1,.44,60.27,452.07,452.07,0,0,1-9.68,70.36c-.66,3-1.36,6.07-2.08,9.1-.78,3.24,4.22,4.63,5,1.38a464.43,464.43,0,0,0,11.38-72.36,457.13,457.13,0,0,0,.58-61.93,445.51,445.51,0,0,0-5.61-49.28c-1.9-11.05-4.23-22-7.14-32.86-1.21-4.51-2.43-9.08-4.05-13.46l-.06-.18a2.67,2.67,0,0,0-3.19-1.81,2.62,2.62,0,0,0-1.81,3.19Z"
     id="path1133"
     style="fill:#ffffff" />
  <path
     d="M333.4,205.54c-1.93,3.27-3.58,6.74-5.18,10.18a262.92,262.92,0,0,0-11.5,29.3,311.28,311.28,0,0,0-11,44.77A330.16,330.16,0,0,0,301,348.94a342.77,342.77,0,0,0,8.18,70.43q1,4.59,2.15,9.16c.81,3.24,5.81,1.86,5-1.38a340.59,340.59,0,0,1-10-70.67,325.42,325.42,0,0,1,3.36-59.2,315,315,0,0,1,10.61-46.48q2.74-8.82,6-17.46,1.36-3.56,2.83-7.07l.3-.72c-.3.71.06-.14.14-.32.23-.55.47-1.11.71-1.66.41-.94.83-1.88,1.25-2.81,1.91-4.24,4-8.34,6.2-12.45l.09-.15c1.7-2.89-2.78-5.5-4.48-2.62Z"
     id="path1135"
     style="fill:#ffffff" />
  <path
     d="M166.12,387.81c.24.23.47.48.69.73s.52.61.77.92c.08.1.16.19.23.29.38.46-.41-.56-.11-.15.17.24.35.47.53.71a55.83,55.83,0,0,1,5.57,9.84l.39.87c.06.14.12.29.19.44.23.53-.23-.56,0,0s.52,1.26.76,1.9c.56,1.44,1.08,2.9,1.57,4.37,1.08,3.3,2,6.66,2.74,10.05A143.49,143.49,0,0,1,182.65,445a247,247,0,0,1-2.84,43.89,2.69,2.69,0,0,0,1.81,3.2c1.22.33,3-.42,3.19-1.82,3.44-23.32,4.83-47.47.28-70.76-2.09-10.75-5.52-21.87-11.8-31a26.73,26.73,0,0,0-3.5-4.37c-2.44-2.27-6.12,1.39-3.67,3.67Z"
     id="path1137"
     style="fill:#ffffff" />
  <path
     d="M594.69,357.34c.17,2,.15,4,.13,5.92-.06,6.38-.51,12.77-1.09,19.13-.46,5.06-1,10.12-1.68,15.16l-.27,2.09c0,.34-.09.67-.13,1,.08-.66-.08.53-.11.76q-.31,2.35-.66,4.71-.75,5.11-1.57,10.22c-2.82,17.38-6.27,34.65-10.09,51.83-5.3,23.82-11.32,47.47-17.79,71q-1.39,5.08-2.83,10.18c-.9,3.22,4.1,4.59,5,1.38,6.89-24.54,13.32-49.21,19-74.06,4.09-17.88,7.8-35.86,10.86-53.94,2.07-12.24,3.86-24.55,5.11-36.9.7-7,1.25-13.94,1.39-20.94a69,69,0,0,0-.09-7.47.25.25,0,0,0,0-.08,2.66,2.66,0,0,0-2.59-2.6,2.62,2.62,0,0,0-2.6,2.6Z"
     id="path1139"
     style="fill:#ffffff" />
  <path
     d="M261.6,580,271,591.8l21.43,26.87,23.65,29.65L332,668.2a59,59,0,0,0,4.6,5.39,37.31,37.31,0,0,0,23.29,10.51q15.79,1.36,31.58,2.69l5.18.44a28.67,28.67,0,0,0,10.93-1.1c2.62-.81,5.27-1.52,7.91-2.28A131.69,131.69,0,0,0,439,674.74a151.09,151.09,0,0,0,31.83-22.32c14.63-13.1,27.28-28.33,38.73-44.25q5.3-7.36,10.27-15c1.84-2.8-2.65-5.4-4.48-2.62-11.65,17.78-24.53,34.89-39.55,50-10,10.08-20.5,18.83-32.69,26a122.34,122.34,0,0,1-13.65,6.94l-.33.14c-.54.24.41-.17.06,0l-.73.3-1.58.64c-.95.38-1.92.74-2.89,1.1-1.8.65-3.61,1.27-5.43,1.84-3,1-6,1.77-9,2.62-1.44.41-2.87.88-4.31,1.28a25.47,25.47,0,0,1-8.91.62l-32-2.73c-4.89-.41-9.65-.8-14.24-2.76A33.62,33.62,0,0,1,337,666.26l-12.86-16.12-22.66-28.41-22.63-28.37-13-16.29-.61-.77a2.62,2.62,0,0,0-3.67,0,2.67,2.67,0,0,0,0,3.67Z"
     id="path1141"
     style="fill:#ffffff" />
  <path
     d="M322,566.64c0-.06,0-.13-.05-.2-.09-.39.09.92.06.42,0-.12,0-.23,0-.35,0-.31,0-.62.05-.94-.06,1.1,0,.32,0,0s.1-.46.17-.69.16-.5.25-.75.12-.27.16-.41c-.26.83-.13.31,0,.09A14.79,14.79,0,0,1,323.7,562c.22-.35.47-.69.72-1s.13-.18-.1.12l.21-.27.47-.55a29.47,29.47,0,0,1,2.27-2.34,2.62,2.62,0,0,0,0-3.67,2.65,2.65,0,0,0-3.67,0,23.11,23.11,0,0,0-5.58,7.3,11.47,11.47,0,0,0-1.17,5.17A6.46,6.46,0,0,0,317,568a2.6,2.6,0,0,0,5-1.38Z"
     id="path1143"
     style="fill:#ffffff" />
  <path
     d="M437.64,610.47a39.17,39.17,0,0,0,15-16.58,31,31,0,0,0,2.79-10.51,2.6,2.6,0,0,0-5.19,0,26.73,26.73,0,0,1-5.77,14c-.4.53-1.34,1.63-2,2.34s-1.5,1.55-2.3,2.29-1.33,1.2-2,1.76c-.18.15-1,.82-.48.4l-.83.61c-.59.43-1.19.85-1.81,1.23-2.87,1.7-.26,6.19,2.62,4.48Z"
     id="path1145"
     style="fill:#ffffff" />
  <path
     d="M381.18,624.55c.52-.24-.81.31,0,0,.49-.19,1-.38,1.48-.55a48.7,48.7,0,0,1,5.56-1.54,62.24,62.24,0,0,1,19.46-1,70.11,70.11,0,0,1,15.15,3.33c3.18,1.05,4.54-4,1.38-5-13.49-4.47-28.82-5.46-42.46-.94a29.23,29.23,0,0,0-3.15,1.21,2.61,2.61,0,0,0-.93,3.55,2.66,2.66,0,0,0,3.55.93Z"
     id="path1147"
     style="fill:#ffffff" />
  <path
     d="M364,542.66c0-.19.06-.39.07-.59,0,1,0,.34,0-.05s.11-.59.17-.88c.16-.78.36-1.55.59-2.31.13-.41.26-.82.41-1.23l.24-.65c.29-.75-.16.32.14-.33a26.25,26.25,0,0,1,1.54-2.86c.16-.26.33-.51.5-.75s.5-.66.15-.21a16.94,16.94,0,0,1,1.24-1.43c.44-.45.91-.86,1.37-1.27s-.24.14.36-.28c.31-.22.63-.44.95-.64a17.6,17.6,0,0,1,1.71-.93l.51-.23c-.45.19-.07,0,0,0,.4-.15.81-.29,1.22-.42a16.55,16.55,0,0,1,5.18-.81,30.05,30.05,0,0,1,6.89.67,2.66,2.66,0,0,0,3.19-1.81,2.62,2.62,0,0,0-1.81-3.19c-7.73-1.59-16-1.16-22.19,4.23a25.43,25.43,0,0,0-7.65,16,2.6,2.6,0,0,0,5.19,0Z"
     id="path1149"
     style="fill:#ffffff" />
  <path
     d="M598.63,369.46c7.44,7.16,15.94,13.38,24.37,19.3a343.05,343.05,0,0,0,67.41,36.69c12.46,5.09,25.24,9.65,38.76,10.68a87.08,87.08,0,0,0,39.9-6.47,112.75,112.75,0,0,0,26-15.22,102.83,102.83,0,0,0,23.38-26.84,158.18,158.18,0,0,0,22.64-70.43c1.78-23.81-2.77-47.67-9.78-70.36-5.92-19.13-14.19-38.51-27.88-53.44a63,63,0,0,0-23.11-16.25c-5.35-2.12-11-3-16.62-4.25q-10.14-2.31-20.12-5.3a289.3,289.3,0,0,1-56.34-23.31q-3.74-2.06-7.4-4.26c-3.12-1.89-5.95-3.76-9.79-3.86-2.32-.06-4.6,0-6.5,1.53a7.14,7.14,0,0,0-2.5,4.52l-1.6,9.52c-.48,2.87-1,5.74-1.44,8.62-.68,4.31.57,7.67,3.31,10.93,3.83,4.57,7.47,9.43,11.58,13.76,2.34,2.46,5.19,4,8.14,5.55,2.58,1.39,5.13,2.86,7.62,4.41a111.36,111.36,0,0,1,12.86,9.25,100.2,100.2,0,0,1,19.82,22.44,130.19,130.19,0,0,1,13.21,27.7c1.87,5.37,3.49,10.84,4.94,16.34a67.79,67.79,0,0,1,2.62,16.43,29.92,29.92,0,0,1-1.74,11.58c-.14.37-.28.74-.43,1.1.29-.7-.13.28-.22.47-.35.73-.74,1.45-1.16,2.14s-.79,1.2-1.21,1.79c-.28.39.4-.49.1-.12-.11.12-.2.25-.31.37-.26.3-.51.6-.78.89-.44.47-.89.92-1.37,1.35-.21.2-.44.39-.66.58l-.33.27c-.58.49.64-.46,0,0a26.9,26.9,0,0,1-2.82,1.8c-.45.25-.91.47-1.37.69l-.62.28c.38-.18.55-.21-.07,0s-1.53.55-2.32.76c-.56.16-1.12.29-1.68.4l-.57.09c-.7.15,1-.06.53-.07-.19,0,1.36,0,.55,0s0-.86.24.1a4.23,4.23,0,0,0-.88-.38,104.14,104.14,0,0,1-34.34-25.15,82.41,82.41,0,0,1-9.22-12.52c-3.2-5.32-5.46-11-7.83-16.68A465.67,465.67,0,0,0,643,196.2a45.45,45.45,0,0,0-5.58-7.69,106.73,106.73,0,0,0-26.21-20.79c-7-4-15.53-5.05-23.44-5.65a172.18,172.18,0,0,0-30.29.65,178.28,178.28,0,0,0-28.83,5.06,79.3,79.3,0,0,0-26.12,12.84c-5,3.65-10,7.76-13.69,12.76-1.12,1.5-.25,3.86,1.24,4.73a3.52,3.52,0,0,0,4.73-1.24c-.92,1.25,0,0,.37-.42.86-1,1.77-2,2.7-2.89A73.92,73.92,0,0,1,508.26,185a97.31,97.31,0,0,1,8.34-5.1c1.25-.68,2.52-1.35,3.81-2l1-.44c.14-.07.6-.26-.07,0l.79-.32a85.92,85.92,0,0,1,10.83-3.38,176.45,176.45,0,0,1,27.86-4.47,159.84,159.84,0,0,1,29.51-.12,63.36,63.36,0,0,1,11.56,2.13c.79.23,1.57.48,2.34.76l1.1.41c.62.24.09,0,0,0l.76.35a58.16,58.16,0,0,1,7,4.11,98.75,98.75,0,0,1,21,18.19c.37.43.69.93,1.1,1.33-1.06-1-.43-.52-.07.06,1.2,1.93,2.36,3.88,3.52,5.85q7.5,12.75,14.2,26c6.22,12.18,11.66,24.63,16.91,37.25a91.47,91.47,0,0,0,18.14,27.68,106.13,106.13,0,0,0,34,24.11,8.55,8.55,0,0,0,3.24,1.07,13.79,13.79,0,0,0,3.18-.57,27.59,27.59,0,0,0,11.6-6.26c14.22-12.9,8.8-34.89,4-50.75-6-20-15-39.11-29.67-54.23A117.67,117.67,0,0,0,688.71,187c-4.2-2.45-8.76-4.19-12-8-2-2.32-3.9-4.65-5.85-7-1.77-2.11-3.74-4.16-5.36-6.39a4.79,4.79,0,0,1-.77-1.61,6,6,0,0,1-.14-1.69c0-.83-.08.45,0,0,.15-1,.33-2,.5-2.93l1.8-10.78.71-4.19c.06-.33.13-.67.17-1,0,0,0-.08,0-.13,0-.61.33-.29-.09-.14,0,0,0-.09,0-.09,1.93,0,3.65-.08,5.37.95.75.45,1.48.93,2.22,1.38,2.19,1.34,4.4,2.63,6.64,3.89,7.08,4,14.37,7.57,21.78,10.88A314.48,314.48,0,0,0,736,172.48q9.5,3,19.18,5.47c6.2,1.56,12.58,2.53,18.72,4.29,17.77,5.1,30.16,20.49,38.65,36.56,9,17,14.44,35.75,18.36,54.5a158,158,0,0,1,3.46,40,148.33,148.33,0,0,1-7.6,39.56c-7,21-18,41.51-35.42,55.73a89.16,89.16,0,0,1-11.55,7.79A111.48,111.48,0,0,1,767,423.11a81.68,81.68,0,0,1-38.37,6.05c-13-1.08-25.54-5.91-37.51-10.86a338.55,338.55,0,0,1-37.47-18.4,329.69,329.69,0,0,1-27.94-17.7c-6.15-4.36-10.95-8-16.62-12.76-1.87-1.57-3.75-3.17-5.52-4.87-3.21-3.09-8.11,1.8-4.89,4.89Z"
     id="path1151"
     style="fill:#ffffff" />
  <path
     d="M364.36,189.34c-3.67-6.93-10-12.85-16.37-17.25-15.48-10.73-34.95-12.13-52.9-7.88-14.8,3.51-28.73,10.43-41.54,18.49-14.38,9-28.1,19.34-41.59,29.66-8.3,6.36-16.43,12.93-24.59,19.47-1.43,1.14-2.85,2.28-4.29,3.4l-.54.42c.69-.54.24-.19.07-.06l-1,.74c-.62.46-1.23.93-1.86,1.38A67.11,67.11,0,0,1,173,242.2c-1.07.61-2.17,1.15-3.28,1.67-.28.12-1.2.47-.06,0l-.74.3c-.59.23-1.19.45-1.8.65a45.41,45.41,0,0,1-7.28,1.66c-.95.15.79-.08-.18,0l-1.05.12c-.77.08-1.53.15-2.3.21-1.61.13-3.23.21-4.85.27-4,.14-8,.14-12,.11l-7.36-.09,1.75.47c-.55-.29-1.09-.61-1.61-.95s-1.15-.74-1.71-1.13l-1-.77c-.55-.4.19.16,0,0l-.62-.5a38.31,38.31,0,0,1-4.77-4.59c-.19-.21-.38-.43-.56-.65s-.58-.72-.36-.44-.26-.35-.34-.46c-.2-.28-.4-.56-.59-.85a29.44,29.44,0,0,1-2-3.41c-.09-.18-.38-.84-.16-.3-.12-.29-.23-.58-.34-.88-.23-.64-.44-1.3-.62-2s-.29-1.26-.41-1.9c0-.16-.06-.33-.08-.49,0,.07.06.51,0,.1s-.07-.79-.09-1.18a19.42,19.42,0,0,1,1.57-8.87c2.84-7.14,8.86-13.21,14.6-18.26,11.67-10.28,25.62-18,39.69-24.44q2.1-1,4.22-1.89c1.62-.71,2-.87,3.41-1.45,2.63-1.08,5.27-2.17,8-3,3.89-1.27,7.93-2.09,11.92-3,8.83-2,17.74-3.83,26.51-6.08,2.92-.74,4.78-2.71,6.77-4.82,2.46-2.6,4.86-5.26,7.15-8a54.19,54.19,0,0,0,6.17-8.52,18.17,18.17,0,0,0,1.9-9.09,56.17,56.17,0,0,0-1.66-12.17c-.92-3.8-2.09-8.31-4.47-11.48a9.63,9.63,0,0,0-12.21-2.57c-3.88,1.94-7.64,4.13-11.47,6.17l-5.52,2.93c-.57.3-1.16.55-1.71.87-.14.08.72-.26.07,0l-.75.28a65.82,65.82,0,0,1-7.67,2.08c-7.31,1.64-14.73,2.82-22.15,3.88-7,1-14,1.55-21,2.36-7.59.88-14.35,3.68-21.23,6.81q-17.35,7.91-34.1,17.1a342.7,342.7,0,0,0-39.65,25.1c-12,8.95-23.57,18.92-32.35,31.16-4.89,6.81-8.8,14.44-12.47,22A189.89,189.89,0,0,0,11.63,250.1c-5.64,17.83-8,36.76-6,55.4a136,136,0,0,0,6.71,29.81c3.18,9.17,7,18.34,12.31,26.53A81,81,0,0,0,55.48,390a98.88,98.88,0,0,0,32.59,9.92,99.47,99.47,0,0,0,19.74.76c4.53-.31,9-1.2,13.53-1.91,12.66-2,25.33-4.18,37.81-7.15a95.92,95.92,0,0,0,14.7-4.38c1.73-.72,3-2.3,2.42-4.26-.45-1.63-2.52-3.14-4.26-2.42-7.36,3.08-15.44,4.66-23.22,6.28-9,1.88-18.16,3.47-27.28,4.94q-4.67.75-9.34,1.44l-2.63.39c-.66.09-1.61-.07,0,0-2.27-.1-4.66.32-6.94.33-2.5,0-5-.07-7.5-.23-1.5-.1-3-.24-4.5-.4-.76-.08-1.51-.18-2.27-.27-.51-.07.62.08.1,0l-.69-.1-1.4-.21A103.85,103.85,0,0,1,75.6,390.4c-1.91-.52-3.81-1.1-5.68-1.75-.92-.31-1.82-.64-2.73-1l-1.45-.56-.64-.26s-1-.42-.47-.19A76.17,76.17,0,0,1,42.3,372.32c-8.19-7.65-14-16.94-18.63-27.12a132.25,132.25,0,0,1-11.28-41.39,125.61,125.61,0,0,1,2.47-39.1,166.55,166.55,0,0,1,13-36.48c4.89-10.08,10.31-20.2,17.52-28.49,14.18-16.31,32.57-28.82,51-39.86A479.82,479.82,0,0,1,146,134.09a60.13,60.13,0,0,1,13.89-4.74c5.06-.92,10.31-1.06,15.42-1.67a318,318,0,0,0,32-5.22,45.84,45.84,0,0,0,10.13-3.17c5.44-2.66,10.72-5.68,16-8.56,1.86-1,3.66-2.27,5.15-.7s2.17,4.58,2.78,6.62a43.93,43.93,0,0,1,2.1,15.64l-.06.69c0-.14.11-.61,0,.05-.08.42-.2.83-.3,1.26,0,.1-.22.64-.05.2s-.16.34-.17.35c-.25.48-.5,1-.78,1.42a48.58,48.58,0,0,1-4,5.56c-3,3.68-6.19,7.22-9.52,10.6-1.3,1.33-3.23,1.46-5,1.86l-10,2.29-19.07,4.37c-7.87,1.8-15.35,5.07-22.69,8.4A197.3,197.3,0,0,0,143.33,185c-9.75,6.54-19.36,14.29-26,24.14-5.63,8.41-7.52,18.45-3.26,27.84,2.78,6.14,7.87,11.1,13.36,14.86a13.6,13.6,0,0,0,3.69,2.13c2,.55,4.63.17,6.7.19,1.82,0,3.65,0,5.47,0a130.36,130.36,0,0,0,16.65-.77,46,46,0,0,0,13-3.5A58.7,58.7,0,0,0,184,243.2c5.2-3.86,10.2-8,15.24-12.06,7.44-6,14.86-11.8,22.48-17.51,11.44-8.57,23-17.16,35.11-24.79,10.74-6.78,22.16-12.69,34.35-16.38a73.83,73.83,0,0,1,26.33-3.56c.9,0,1.8.11,2.7.2l1.39.15c.14,0,.69.09,0,0l.91.13c1.73.27,3.46.61,5.16,1s3.19.87,4.75,1.42c.71.24,1.41.5,2.1.77.2.08,1.33.55.49.19l1.16.51a55,55,0,0,1,7.47,4.14c.55.36,1.09.74,1.63,1.12l.69.51c.29.21,1,.78.31.22,1,.75,1.87,1.51,2.77,2.31a55.58,55.58,0,0,1,4.48,4.47c.59.66,1.16,1.34,1.72,2,.12.16.24.32.37.47.44.53-.55-.75-.11-.14l.65.87a30.44,30.44,0,0,1,2.29,3.53c2.08,3.94,8.06.45,6-3.49Z"
     id="path1153"
     style="fill:#ffffff" />
  <path
     d="M384,556.69c-.57-.15-1.14-.34-1.7-.54-.28-.09-.56-.2-.83-.3l-.45-.18c-.65-.23.88.34.77.33a7.25,7.25,0,0,1-2.17-1c-.63-.35-1.22-.76-1.83-1.16s1.06.91.43.34c-.14-.13-.3-.25-.44-.39s-.53-.54-.8-.81c-.59-.58.78,1.16.35.46-.1-.15-.21-.3-.3-.46s-.17-.32-.26-.48c-.41-.69.41,1.36.25.57a5,5,0,0,0-.14-.52c-.14-.42.25-.75.1.84a5.44,5.44,0,0,0,0-.57c-.08-1.14-.32,1.16-.09.4.06-.19.11-.41.16-.61.14-.6.53-.57-.2.39.23-.31.39-.77.6-1.11s.36-.45.48-.69c-.53,1.11-.4.51,0,.1s1.11-1,1.53-1.49c-.67.85-.74.52-.26.23l.57-.36c.23-.13.47-.25.71-.37.88-.48-1.23.41-.28.12.49-.15,1-.29,1.48-.41.93-.23-1.18.08-.51,0l.9-.06c.51,0,1,0,1.54,0,1,.07-1.35-.25-.35,0,.26,0,.52.09.78.15.44.1.87.22,1.29.35l.78.26c.45.17,1.38.8,0,0,.88.52,1.85.9,2.73,1.44.48.3.95.61,1.42.94.22.16.44.35.68.5-1.35-.83-.28-.22.06.06a28.68,28.68,0,0,1,2.6,2.46c.36.38.7.78,1,1.18.47.57.1.63-.18-.25a4.34,4.34,0,0,0,.57.8c.56.8.92,1.72,1.45,2.53-.76-1.17-.39-1-.22-.5.08.23.16.47.23.71s.07.35.12.52c.21.78-.15-1.64-.09-.57.16,2.71,2.27,5.33,5.2,5.2,2.67-.12,5.37-2.29,5.19-5.2-.31-5.23-3.77-9.87-7.51-13.31-4.46-4.09-10-7.18-16.08-7.64a16.29,16.29,0,0,0-15.44,9.11,11.1,11.1,0,0,0-.19,9.66,14.06,14.06,0,0,0,4.9,5.4,26.52,26.52,0,0,0,8.69,3.94,5.2,5.2,0,1,0,2.76-10Z"
     id="path1155"
     style="fill:#ffffff" />
  <path
     d="M427.57,571.27c5.62,1.05,11.34-1.54,15.28-5.49a28.39,28.39,0,0,0,5.06-7.09,5.47,5.47,0,0,0,.53-4,5.32,5.32,0,0,0-2.39-3.11c-2.38-1.26-5.78-.71-7.11,1.87a28,28,0,0,1-2.63,4.18l.82-1a19.15,19.15,0,0,1-3.26,3.29l1.06-.81a14.94,14.94,0,0,1-3.11,1.83l1.24-.52a12.08,12.08,0,0,1-3.11.86l1.38-.18a8.92,8.92,0,0,1-2.25,0l1.38.19-.13,0a5.59,5.59,0,0,0-4,.52,5.31,5.31,0,0,0-2.38,3.11,5.22,5.22,0,0,0,.52,4,5.14,5.14,0,0,0,3.11,2.39Z"
     id="path1157"
     style="fill:#ffffff" />
  <path
     d="M361.54,483.3a3.88,3.88,0,0,1-.31.26c.28-.27.57-.4.13-.11l-.59.4a16.49,16.49,0,0,1-1.61.85c-.35.17-.39.16,0,0l-.58.23c-.45.17-.9.33-1.36.47a25.1,25.1,0,0,1-3.09.7l-.4.06h.07c-.32,0-.64.08-1,.1q-1,.11-2.1.12a39.3,39.3,0,0,1-9.89-1.05A72.88,72.88,0,0,1,327,480.58a61.33,61.33,0,0,1-12.59-7.2,31.51,31.51,0,0,1-3.5-3.17c-.48-.51-.94-1-1.37-1.57.31.38-.17-.24-.27-.38s-.4-.58-.59-.87q-.43-.7-.81-1.44c-.12-.25-.23-.49-.34-.74.27.6,0-.1-.11-.32q-.21-.6-.36-1.2c0-.21-.1-.42-.14-.64-.08-.38-.06-.63,0-.05a19.29,19.29,0,0,1-.05-2.15c0-.13.05-.27.05-.4,0,.8-.09.48,0,.17s.1-.5.17-.74.12-.38.17-.57c.16-.51.27-.26-.07.14a4,4,0,0,0,.17-.36c.1-.15.21-.31.3-.46.33-.54-.55.62.06-.06.21-.23.41-.47.64-.69a9.48,9.48,0,0,1,.87-.8c.16-.14.35-.27.51-.42-.66.65-.11.09.19-.13A22.57,22.57,0,0,1,313,454.7l1-.44c-.17.09-.49.2,0,0l.57-.22q1.2-.45,2.43-.81c1-.27,1.92-.51,2.89-.71.47-.1.95-.19,1.42-.27l.84-.14.71-.1.66-.08.82-.09,1.94-.16c1.41-.09,2.82-.13,4.23-.13a89.48,89.48,0,0,1,9.69.54,154.13,154.13,0,0,1,25.76,5.4c2.67.77,5.33,1.6,8,2.46,3.19,1,4.55-4,1.38-5a185.47,185.47,0,0,0-29.64-7.33,88.62,88.62,0,0,0-20.38-1c-7.05.57-14.67,2.24-20.1,7.09a10.18,10.18,0,0,0-3.61,7.75c-.14,5,2.68,9.53,6.06,13A46.37,46.37,0,0,0,318,481.89a88.37,88.37,0,0,0,15.45,6.74c7.11,2.33,14.77,3.68,22.22,2.45,3.19-.53,6.77-1.65,9.25-3.85a2.66,2.66,0,0,0,.31-.26c2.41-2.32-1.26-6-3.67-3.67Z"
     id="path1159"
     style="fill:#ffffff" />
  <path
     d="M310.28,475.87c3.35,0,3.35-5.19,0-5.19s-3.35,5.19,0,5.19Z"
     id="path1161"
     style="fill:#ffffff" />
  <path
     d="M384,560c1.29-1.11,1.8-2.65,3.44-3.35,1.39-.59,2.41-.55,3.43.57a25.8,25.8,0,0,0,3.23,3.54,26.45,26.45,0,0,0,2.3,1.48c.33.2,1.11.61,1.26,1l3.82-2.94-.18-.11.93.94c.54,1.13,0-.48,0-.82a10.48,10.48,0,0,0-.33-1.34,15.9,15.9,0,0,0-1-2.46,13.82,13.82,0,0,0-3.33-4.23c-1.44-1.22-2.9-2.4-4.33-3.64a16,16,0,0,0-5.32-3c-3.56-1.26-7.77-2.2-11.16,0-3,2-5.92,6.63-3.57,10.08l4.48-2.62-.72-1.05a2.67,2.67,0,0,0-3.56-.93,2.63,2.63,0,0,0-.93,3.56,14.86,14.86,0,0,0,3.88,4.25,11.27,11.27,0,0,0,5.16,2.3c2.8.27,3.76-2.75,3.79-5a8.1,8.1,0,0,0-.62-3.19c-.2-.47-.44-.9-.63-1.36s-.06-.6-.17-.31l-.67,1.15c-1,.3-1.2.42-.6.34l1-.12a4.84,4.84,0,0,0,1.29-.54,5.35,5.35,0,0,0,2-2.41c1.07-2.39,1.13-4.88-1.64-6a2.55,2.55,0,0,0-3.06,1.5,2.61,2.61,0,0,0,1.06,3.24l9.75,6.38a2.62,2.62,0,0,0,3.91-2.24,2.82,2.82,0,0,0-1-2.25,2.87,2.87,0,0,0-1.14-.67,5.88,5.88,0,0,0-.83-.19l1.14.66-.17-.18.76,1.84A6,6,0,0,0,395,549a7.4,7.4,0,0,0-2.49-2.26c-1.88-1.18-4.14-2.35-6.43-1.91a8.74,8.74,0,0,0-4.74,3.28c-.59.69-1.15,1.42-1.75,2.1a10.29,10.29,0,0,1-1.09,1.1,1,1,0,0,1-.38.3c-.46.24-.43.28.07.1l1.31.36c.15.27.15.29,0,0a5.48,5.48,0,0,1-.31-.52c-.4-.8.16-.45-.37.39l-.94.93c-.17.08-.15.09.06,0,.36,0,.22-.1-.43-.3l-.36-1.31c-.05-.58.93-1,.25-.83l2,4.74a26.73,26.73,0,0,1,9.39-3.18l-2-4.75c-2.17,1.12-3.2,3.2-4.11,5.35-.84,2-2.29,3.59-3.19,5.55s.59,4.59,2.93,3.81a4,4,0,0,0,2.82-2.9c.76-3.26-4.25-4.64-5-1.38l.81-.73,2.94,3.82c.82-1.79,2.16-3.25,3-5,.63-1.36,1-3.25,2.46-4a2.58,2.58,0,0,0,1.06-3.25,2.65,2.65,0,0,0-3.06-1.5,30.49,30.49,0,0,0-10.63,3.71c-2.53,1.44-.85,5.6,2,4.75,2-.59,3.71-1.94,3.57-4.18-.16-2.48-2.6-3.76-4.85-3.54-2.56.25-4.25,2-3.52,4.68.54,2,2.05,4.42,4.37,4.42,2,0,3.68-1.65,4.91-3,1-1.16,2-3,3.41-3.78,1.1-.61,2.72.83,3.65,1.39.42.24.31.35.14-.08.2.52,0,1.13.35,1.7a3,3,0,0,0,2,1.45q1.1,0,.57.12l-1.15-.67.2.19-.76-1.84v.23l3.91-2.25L385.82,544l-2,4.75.31.12-1.55-1.19.17.31-.35-1.31s-.38,1.07-.36,1.12.5-.25.53-.17a4.94,4.94,0,0,0-.92.09,3.38,3.38,0,0,0-3,3.16,7.67,7.67,0,0,0,1,3.73,2.79,2.79,0,0,1,.07,2.7l1.55-1.2-.19,0h1.38a8.65,8.65,0,0,1-5.58-4.12l-4.49,2.63.73,1a2.66,2.66,0,0,0,3.55.93,2.62,2.62,0,0,0,.93-3.55c-.47-.69.52-1.66,1-2.21a3.65,3.65,0,0,1,2.75-1.43,11.09,11.09,0,0,1,3.89.73,12.93,12.93,0,0,1,3.9,1.75c1.11.83,2,1.91,3.15,2.76a16.93,16.93,0,0,1,3,2.69,9.18,9.18,0,0,1,1.63,3.28c.43,1.57.29,3.11,1.89,4.06,1.77,1,4.73-.75,3.81-2.93-1-2.48-2.86-3.54-5-4.92-1.74-1.1-2.61-3.16-4.24-4.42a7.55,7.55,0,0,0-7.38-.85,10,10,0,0,0-3.48,2c-.84.8-1.33,1.87-2.21,2.63a2.61,2.61,0,0,0,0,3.67,2.64,2.64,0,0,0,3.67,0Z"
     id="path1163"
     style="fill:#ffffff" />
  <path
     d="M430.18,566.21a9.08,9.08,0,0,1,1.55-1.61c.59-.53,1.18-1.05,1.82-1.53,1.21-.9,2.62-1.39,3.87-2.2A8.27,8.27,0,0,0,440,558a12.08,12.08,0,0,1,1.07-1.84c.16-.19.05-.09.13-.08a2.54,2.54,0,0,1,.51.32l.5.33.21.13c.23.16.26.18.09,0l.07-.5c-.1.19-1,.42-1.17.53a4.93,4.93,0,0,0-1.07.86l1.09.63a2.52,2.52,0,0,1,.7-1.42l-1.09-.64a22.27,22.27,0,0,1-1.18,2.81l1.21.32a4.66,4.66,0,0,1,.53-2.51l-1.19-.5a12.9,12.9,0,0,1-2.24,5.13l1.21.33a7.07,7.07,0,0,1,1.15-3.3l-1.19-.5a9.79,9.79,0,0,1-1,2.31,9.43,9.43,0,0,1-.61.94c-.21.27-.62.92-1,1l.62.83a6.25,6.25,0,0,1,2.19-3.5l-1.09-.63a10.73,10.73,0,0,1-2.7,4.27l1.11.46a4.68,4.68,0,0,1,2.09-3.92l-.89-.89a30.28,30.28,0,0,1-2.31,3.09q-.61.72-1.26,1.41l-.67.67a3.51,3.51,0,0,1-.34.33c-.25.17-.23.23.09.18l.3.38c-.16-.45.32-1.28.55-1.64a3.64,3.64,0,0,1,1.4-1.24l-.89-.89a24.52,24.52,0,0,1-2.06,2.49l1,.79a3.91,3.91,0,0,1,2.7-2.06l-.73-.95a5.89,5.89,0,0,1-2,1.5l-2.22,1.41.79,1a4.29,4.29,0,0,1,1.27-.83l-.63-1.08-2.36,2,.92.92.7-.69c.36-.36.12-1.19-.46-1.11l-1,.13.33,1.21,5.24-2.89-1-.73c-.11.37-.22,1.11-.51,1.37l.06,0-.37,0a1.49,1.49,0,0,0-.51.1l.5,1.19a15.46,15.46,0,0,0,4.14-3.08c.58-.6-.34-1.52-.92-.91a14.29,14.29,0,0,1-3.87,2.86c-.65.33-.19,1.46.5,1.19.25-.1.52,0,.79-.06a1.1,1.1,0,0,0,.67-.44,6.12,6.12,0,0,0,.77-1.89.65.65,0,0,0-.95-.73l-5.25,2.89c-.53.29-.33,1.3.33,1.21l1-.13-.46-1.11-.7.69c-.59.6.3,1.46.92.92l2.36-2c.47-.41,0-1.33-.63-1.09a5.7,5.7,0,0,0-1.85,1.17.65.65,0,0,0,.79,1c.89-.56,1.77-1.13,2.65-1.7a5.67,5.67,0,0,0,2-1.69.65.65,0,0,0-.73-1,5.17,5.17,0,0,0-3.49,2.65c-.33.63.5,1.35,1,.79a28.32,28.32,0,0,0,2.27-2.75c.41-.56-.36-1.17-.88-.89a4.94,4.94,0,0,0-2.3,2.55c-.29.72-.67,2.71.8,2.31.55-.15,1-.77,1.4-1.16s1-1,1.45-1.57a36.72,36.72,0,0,0,2.67-3.53.66.66,0,0,0-.89-.89,6,6,0,0,0-2.74,5,.66.66,0,0,0,1.11.46,12.32,12.32,0,0,0,3-4.85c.22-.67-.63-1-1.09-.63a7.4,7.4,0,0,0-2.52,4.07c-.08.37.19.87.63.82,1.12-.12,1.79-1.1,2.38-2a11.47,11.47,0,0,0,1.47-3.2.65.65,0,0,0-1.19-.5,8.49,8.49,0,0,0-1.33,4c0,.71.88.8,1.21.33a14,14,0,0,0,2.38-5.44c.13-.69-.83-1.19-1.19-.5a5.79,5.79,0,0,0-.71,3.16c0,.6.91.95,1.21.33a25.67,25.67,0,0,0,1.32-3.11.66.66,0,0,0-1.09-.63,3.72,3.72,0,0,0-1,2c-.11.6.6,1.14,1.08.63a3.84,3.84,0,0,1,1.34-.91,2,2,0,0,0,1-.61c.6-.9-.58-1.45-1.18-1.83-.76-.49-1.63-1.06-2.32-.14s-1,1.68-1.48,2.5a6.41,6.41,0,0,1-2.09,2.21c-.9.54-1.89.91-2.79,1.47a19.65,19.65,0,0,0-2.62,2,11.94,11.94,0,0,0-2.12,2.2c-.46.69.66,1.34,1.13.65Z"
     id="path1165"
     style="fill:#ffffff" />
  <path
     d="M401.07,559.84l.07.12c0,.07,0,.08,0,0a1.07,1.07,0,0,1,.07.19,3.63,3.63,0,0,1,.1.45c0,.14,0,0,0,.1a1.49,1.49,0,0,1,0,.21c0,.15,0,.31,0,.47,0,.71,0,1.41,0,2.12a.66.66,0,0,0,.65.65.67.67,0,0,0,.65-.65c0-.75,0-1.5,0-2.25a4.37,4.37,0,0,0-.47-2.1.65.65,0,0,0-.89-.23.67.67,0,0,0-.23.89Z"
     id="path1167"
     style="fill:#ffffff" />
  <ellipse
     cx="345.48"
     cy="465.02"
     rx="15.89"
     ry="14.08"
     id="ellipse1169"
     style="fill:#ffffff" />
  <ellipse
     cx="485.46"
     cy="472.92"
     rx="15.89"
     ry="10.51"
     id="ellipse1171"
     style="fill:#ffffff" />
  <path
     d="M478.72,456.71c-4.14,2.26-8.28,4.52-12.31,7-2.48,1.5-4.83,3.24-7.4,4.6-4.57,2.42-9.24,4.64-13.76,7.16-1.66.93-4,2-5.17,3.5-1.32,1.7-.6,4.4,1.84,4.43,1.72,0,3.43-1.6,4.72-2.55,2.15-1.59,4.25-3.22,6.42-4.78.93-.67,1.88-1.34,2.86-2,.35-.22.72-.43,1.09-.64.14-.08.29-.14.44-.21-.89.42.44-.13.74-.24a27,27,0,0,0,6-2.78l5.91-3.84a57.74,57.74,0,0,1,5.89-3.45c2.07-1,4.26-1.78,6.37-2.72,3.33-1.49,6.43-3.48,9.61-5.26,5.14-2.88,10.29-5.73,15.5-8.47,3.1-1.63,6.22-3.23,9.39-4.73a49.43,49.43,0,0,1,7.14-3c3.17-1,1.82-6-1.38-5-5.19,1.63-10.13,4.27-14.94,6.75-5.43,2.8-10.79,5.73-16.12,8.7-2.56,1.43-5.1,2.89-7.64,4.34-3.94,2.25-8.28,3.56-12.23,5.75s-7.61,5.15-11.62,7.36c-2.4,1.32-5.07,1.82-7.37,3.34s-4.77,3.43-7.12,5.19c-1,.75-2,1.51-3,2.23l-1.14.76c-.1.07-.33.14-.39.22s.39-.16.44-.17c-.32.09-.06-.06.49-.06l1.84,4.44c.13-.18.32-.3.46-.47s-.51.35,0,0l.53-.36c.87-.58,1.78-1.1,2.69-1.61,2.32-1.31,4.68-2.53,7.05-3.75,2.21-1.13,4.44-2.24,6.64-3.39s4.19-2.57,6.28-3.88c4.54-2.83,9.23-5.39,13.93-7.95,2.93-1.6.31-6.09-2.63-4.49Z"
     id="path1173"
     style="fill:#ffffff" />
  <path
     d="M475.59,473.21c-3.12-4.1,3.82-7.51,6.74-8.72a35.74,35.74,0,0,1,16.22-2.65c5.29.41,10.46,3,14.74,6.07,1.89,1.34,3.68,3.22,4.07,5.59s-1.17,4.2-2.89,5.51a57.36,57.36,0,0,1-7.57,4.46,41,41,0,0,1-8.63,3.59c-3.22.87-1.85,5.88,1.38,5a46.43,46.43,0,0,0,9.67-4,57.94,57.94,0,0,0,8.49-5.11,11.48,11.48,0,0,0,4.79-8.35,12.17,12.17,0,0,0-3.87-8.88,32.1,32.1,0,0,0-8.07-5.4,31,31,0,0,0-10-3.43,39,39,0,0,0-20,2.72c-3.4,1.41-6.86,3.12-9.1,6.16-2.09,2.83-2.66,7.13-.43,10.07a2.69,2.69,0,0,0,3.56.93,2.63,2.63,0,0,0,.93-3.56Z"
     id="path1175"
     style="fill:#ffffff" />
  <path
     d="M498.59,463l-1.95,3.86a24.21,24.21,0,0,0-1.85,3.84,4,4,0,0,0,.95,3.92,5.77,5.77,0,0,0,4.12,1.45,2.6,2.6,0,0,0,2.6-2.59c-.29-2.36-.87-5.85,2.33-6.13a2.61,2.61,0,0,0,.69-5.1c-3.88-1.26-7.79-.17-11.72-.72l-.69,5.1c.94,0,1.87-.11,2.79-.23a2.68,2.68,0,0,0,2.6-2.6,2.64,2.64,0,0,0-2.6-2.6c-2.64,0-5.27,0-7.91.23-3.3.24-3.38,5.16,0,5.2a24,24,0,0,0,6.75-.91c2.72-.78,2.33-5.37-.69-5.11q-3.87.33-7.76.71a2.67,2.67,0,0,0-2.59,2.6,2.63,2.63,0,0,0,2.59,2.6c2.61,0,5.22.15,7.81.4.65.06,1.31.1,1.95.21a2.76,2.76,0,0,1,.49.07c.52.19.46.09-.18-.31-.28,0,.06,2.48.11,2.8a15.6,15.6,0,0,0,.37,1.88,5.37,5.37,0,0,1,.4,1.55c-.06.55-.72,1.11-1.13,1.43-1.7,1.33-4.08,1.62-6.14,1.89l2.6,2.6a10.27,10.27,0,0,1,1.7-4.52,15.86,15.86,0,0,1,2.66-3.92c1.17-1.14,2.78-1.73,4.15-2.6a21.34,21.34,0,0,0,2.1-1.58,5.62,5.62,0,0,1,1.52-1.1c1.06-.37,2.67,1.12,3.52,1.66,1.61,1,3.21,2,4.76,3.1,2.1,1.47,4.52,3.74,3.95,6.59a2.66,2.66,0,0,0,1.81,3.2,2.63,2.63,0,0,0,3.2-1.82,10.9,10.9,0,0,0-1-7,14.46,14.46,0,0,0-4.36-4.69c-1.83-1.4-3.8-2.62-5.75-3.84s-4.24-2.8-6.84-2.34c-2,.35-3.3,1.7-4.84,2.88-1.78,1.36-3.92,2.11-5.61,3.62a19,19,0,0,0-3.78,5.25,15.82,15.82,0,0,0-2.41,7.14,2.61,2.61,0,0,0,2.6,2.6c3.43-.46,6.84-1,9.6-3.24a7.93,7.93,0,0,0,2.67-3.8c.53-1.87-.28-3.55-.61-5.35-.29-1.56.08-3.21-.65-4.68a4.68,4.68,0,0,0-3.76-2.49,81.37,81.37,0,0,0-10.93-.76v5.2q3.88-.37,7.76-.71l-.69-5.1a18.4,18.4,0,0,1-5.37.72v5.2c2.64-.19,5.27-.27,7.91-.23v-5.2c-.92.13-1.85.2-2.79.24a2.6,2.6,0,0,0-2.55,2.25,2.56,2.56,0,0,0,1.86,2.85,35.23,35.23,0,0,0,6.16.21,15.55,15.55,0,0,1,5.56.51l.69-5.11c-2.68.23-5.16,1.21-6.57,3.64s-1.28,5.07-1,7.69l2.6-2.6a3.62,3.62,0,0,0-.56,0c-.4.17.15,1.34.53,1.2s.9-1.79,1.08-2.14l2.17-4.29a2.65,2.65,0,0,0-.94-3.55,2.61,2.61,0,0,0-3.55.93Z"
     id="path1177"
     style="fill:#ffffff" />
  <path
     d="M506,466.58l.38.07c.08,0,.59.22.24.06s.07.06.13.09a3.51,3.51,0,0,1,.4.27l1.31-4.84a48.77,48.77,0,0,0-6.51,0,25.81,25.81,0,0,0-3.59.58c-1,.26-2.06.59-3.12.8a2.61,2.61,0,0,0-1.82,3.19,2.68,2.68,0,0,0,3.2,1.82c1-.19,1.93-.49,2.9-.75.53-.13,1.07-.25,1.61-.34.06,0,.82-.1.24,0l.82-.08a46.85,46.85,0,0,1,6.27,0,2.62,2.62,0,0,0,2.5-1.91,2.73,2.73,0,0,0-1.19-2.93,5.54,5.54,0,0,0-2.39-1,2.6,2.6,0,1,0-1.38,5Z"
     id="path1179"
     style="fill:#ffffff" />
  <path
     d="M312.52,471.63c.27.34-.09-.13-.16-.25s-.32-.54-.47-.82a8.84,8.84,0,0,1-.59-1.47,27.29,27.29,0,0,1-1-4.26A22.49,22.49,0,0,1,310,461c0-.28,0-.56,0-.84,0-.11.08-.9,0-.66s.38-1,0-.35c-.3.48-.1.13.13.05s.48-.24.72-.36c7.35-3.51,15.45-3.47,23.42-3.47,2.3,0,4.61,0,6.91,0a37.78,37.78,0,0,1,6.88.46l.69-5.1c-6.1-.77-12.24-1.85-18.4-1.32s-12.06,2.15-18,3.81l2.94,1.19-.13-.25.36,1.31,0-.29-.35,1.31c-.16.29-1,.44-.41.45a2.43,2.43,0,0,0,.68-.21l1.61-.47c1-.28,2-.54,3-.77,2-.47,4.06-.85,6.12-1.12s4.12-.42,6.18-.48c.05,0,1.67,0,1.67,0s-1.32-.8-.77-.42c.37.25-.05,0,0-.11l-.08.14a34.31,34.31,0,0,0-.84,4L331,463.79l-.8,3.83h5c-.06-.31-.1-.61-.14-.92.08.58,0-.28,0-.31,0-.19-.05-.38-.07-.57-.13-1.08-.23-2.16-.31-3.24a25.89,25.89,0,0,1-.1-2.64c0-.15,0-.31,0-.46-.06.48.05-.08.1-.26a1.47,1.47,0,0,1,.31-.66c1.81-1.12,1.63-4.25-.62-4.75a34.93,34.93,0,0,0-8.93-1,31.05,31.05,0,0,0-8.67,1.78,32.44,32.44,0,0,0-6.24,3,35.37,35.37,0,0,0-3,2q-.75.56-1.47,1.14a4.65,4.65,0,0,0-.48.42,2.24,2.24,0,0,1,2.11-.44l1.14.66,0,0,.67,1.14c.06.23-.09,1.58.08.94.1-.4-.28.53,0-.05s.52-1,.8-1.48.57-.91.87-1.36c.05-.08.12-.16.18-.25.17-.27-.41.44-.12.16a.7.7,0,0,1,.14-.16c.13-.12.08-.09-.14.09a2,2,0,0,1-1.4.47l-1.31-.36h0l-.93-.93a1.84,1.84,0,0,1-.26-1.59l4.75-.62c-1.11-2.09-3.62-1.92-5.17-.51a12.27,12.27,0,0,0-1.34,1.62c-.2.25-.39.76-.17.23a.91.91,0,0,1-.18.21l-.12.12c-.45.44.08.24,1.59-.61l1.83.76c.44,1.64.67,2.14.7,1.5,0-.08,0-.09,0,0-.48.49-.55.61-.21.35l.55-.37c.63-.4,1.26-.79,1.9-1.17,1.37-.79,2.76-1.54,4.13-2.33,2.52-1.45,5.12-2.91,8.11-2.8s3.6-4.56.69-5.1a14.47,14.47,0,0,0-10.66,2c-2.8,1.81-.2,6.31,2.62,4.48a9.13,9.13,0,0,1,6.66-1.44l.69-5.11c-3.54-.13-6.8,1.31-9.83,3-1.36.76-2.69,1.56-4.06,2.3a19,19,0,0,0-4.55,3,4.65,4.65,0,0,0-1.14,4.2,2.73,2.73,0,0,0,4,1.57,7.52,7.52,0,0,0,1.85-2c-.41.52.22-.24.35-.4l.18-.18c.16-.14.15-.14,0,0s-.2.16,0,.06c-2.47-1.43-3.42-1.66-2.86-.67,1,1.89,4.33,1.58,4.75-.62.33-1.74-.46-3.7-2.54-3.71a3.57,3.57,0,0,0-2.84,1.85,15.92,15.92,0,0,0-2.51,4.5,2.82,2.82,0,0,0,1.75,3.72c1.57.44,2.57-.63,3.68-1.52a28.38,28.38,0,0,1,8.43-4.77,25.67,25.67,0,0,1,7.23-1.5,29,29,0,0,1,7.31.84l-.63-4.75c-2.66,1.63-3.12,4.75-3,7.61a64,64,0,0,0,.81,7.32c.42,2.53,4.5,2.42,5,0l2.44-11.61c.43-2.05,1.24-4.35.21-6.32a4.29,4.29,0,0,0-2.19-2.05,10.26,10.26,0,0,0-4-.23,73.16,73.16,0,0,0-7.82.78,66.79,66.79,0,0,0-8.15,1.75,12.67,12.67,0,0,0-4,1.45,3.29,3.29,0,0,0-.94,4.34,2.63,2.63,0,0,0,2.94,1.19c5.58-1.57,11.23-3.22,17-3.66,6-.46,12,.61,17.93,1.36,2.89.36,3.54-4.53.69-5.11-4.71-.95-9.67-.67-14.45-.68a109.17,109.17,0,0,0-14.24.54c-4.47.57-9.3,1.69-13.24,4-3.33,1.95-2.92,6.46-2.5,9.77.49,3.78,1.37,7.8,3.85,10.8a2.62,2.62,0,0,0,3.67,0,2.66,2.66,0,0,0,0-3.68Z"
     id="path1181"
     style="fill:#ffffff" />
  <path
     d="M371.1,456.88c-6.91-1.51-13.7-3.42-20.48-5.42l-.69,5.1c3.9,0,7.84,1.46,11.58,2.42,2.59.67,5.19,1.31,7.76,2q3.47,1,6.91,2.06c1.09.33,2.17.67,3.25,1l1.16.39c.24.08,1.39.55.41.13l.62-4.75c.89-.15.7-.09.42-.09s.66.17.22,0-.7-.14-1-.21c-.93-.21-1.86-.44-2.79-.68-1.83-.48-3.64-1-5.47-1.47a47.33,47.33,0,0,0-8-1.3,16.31,16.31,0,0,0-10.25,2.19A2.62,2.62,0,0,0,356,463.2c2.63.26,5.13-1.05,7.72-1.35a21,21,0,0,1,7.57.54c3.24.82,4.62-4.19,1.38-5a25.86,25.86,0,0,0-8.49-.77,27.07,27.07,0,0,0-4.11.66A11.89,11.89,0,0,1,356,458l1.31,4.84c2.7-1.75,5.93-1.75,9-1.32a49.33,49.33,0,0,1,6.14,1.2c1.86.5,3.72,1,5.59,1.48,1.58.4,3.31,1,4.94.7,2.1-.35,2.64-3.88.62-4.74a108.09,108.09,0,0,0-13-4.14c-2.73-.78-5.48-1.46-8.22-2.17-4.06-1-8.26-2.51-12.5-2.49a2.61,2.61,0,0,0-.69,5.11c6.78,2,13.57,3.91,20.48,5.42,3.25.71,4.65-4.3,1.38-5Z"
     id="path1183"
     style="fill:#ffffff" />
  <path
     d="M313.56,457.59a1.67,1.67,0,0,0,.28-.18,9,9,0,0,0,.77-.61,2.39,2.39,0,0,0,.22-.23,6.57,6.57,0,0,0,.6-.79,1.88,1.88,0,0,0,.31-1,2,2,0,0,0,0-1,1.93,1.93,0,0,0-.47-.88,1.82,1.82,0,0,0-.73-.67l-.62-.26a2.49,2.49,0,0,0-1.38,0l-.62.26a2.59,2.59,0,0,0-.93.93l-.12.16.41-.52a2.84,2.84,0,0,1-.49.49l.52-.41a1.9,1.9,0,0,1-.33.22,2,2,0,0,0-.73.67,2,2,0,0,0-.46.89,2.88,2.88,0,0,0,.26,2l.4.52a2.54,2.54,0,0,0,1.15.67l.69.1a2.61,2.61,0,0,0,1.31-.36Z"
     id="path1185"
     style="fill:#ffffff" />
  <path
     d="M547.1,441.48c1-.3-.86,0,.15-.08s-.76-.19.17,0-.57-.41.23.07a5.48,5.48,0,0,0,.52.31c.56.27-.53-.57-.1-.08s.69.7,1,1.06c-.59-.66-.06,0,.17.32a21.62,21.62,0,0,1,1.3,2.42c.2.41.38.82.57,1.23l.27.62c0-.07-.29-.74-.08-.19.35.93.72,1.84,1,2.78a56.07,56.07,0,0,1,1.65,5.69c.21.89.39,1.78.55,2.68.09.45.16.9.23,1.35,0,.22.07.45.11.67.12.81-.09-.83,0,0,.19,2,.37,3.93.4,5.91a107.07,107.07,0,0,1-.8,12.26c-.84,8.21-1.61,16.43-2.6,24.62-.13,1.05-.26,2.09-.4,3.13,0,.06-.11.85,0,.27s0,.2,0,.26l-.24,1.68q-.43,3-1,6c-.71,4-1.55,8-2.59,11.9-1.12,4.25-2.45,8.45-4,12.57-.37,1-.76,2-1.16,3-.2.5-.42,1-.62,1.5s0-.1.08-.17l-.46,1.06q-1.34,3.08-2.82,6.08l9.49,1.25c-.29-1.51,0,1-.09-.49,0-.48,0-.94-.06-1.42s0-.94,0-1.41c0-.14.17-1.7,0-.51a51.68,51.68,0,0,1,1.19-5.63c.93-3.67,1.83-7.35,2.65-11,1.63-7.41,3-14.88,4-22.41a195,195,0,0,0,1.26-46.06c-.46-4.51-1.09-9-1.92-13.47s-1.36-9.24-4.33-12.72c-2.44-2.86-8-1.44-8.69,2.29-1.89,10.33-1.84,20.77-1.05,31.21.78,10.26,2.13,20.48,2.43,30.77.08,2.84.09,5.69,0,8.53-.06,1.38-.14,2.76-.25,4.14-.07.76-.14,1.53-.22,2.29,0,.3-.07.61-.11.92s-.21,1.61,0,.44h10l-1-3.4a5.2,5.2,0,0,0-10,2.76l1,3.41a5.29,5.29,0,0,0,5,3.81c2.08-.09,4.69-1.52,5-3.81,1.46-10.45,1.16-20.86.26-31.34-.87-10.24-2.15-20.46-2.22-30.74,0-2.83.06-5.67.26-8.49.1-1.38.24-2.74.4-4.11.11-1,0-.19,0,0,.06-.46.13-.91.2-1.37.11-.76.25-1.51.39-2.27l-8.69,2.29c-1.11-1.31.46.89-.35-.65a5.42,5.42,0,0,1,.36,1.12c.23.86.42,1.73.61,2.6.42,1.83.79,3.68,1.13,5.54.31,1.69.59,3.39.83,5.1.07.46.14.93.2,1.39-.16-1.21,0,.34.06.49.12,1,.24,2,.34,3a173.09,173.09,0,0,1,.82,22.31,215.69,215.69,0,0,1-1.8,22.13c.14-1,0,0,0,.27s-.11.78-.16,1.17c-.14.94-.28,1.88-.43,2.81q-.43,2.82-.93,5.62c-.67,3.73-1.41,7.46-2.22,11.16-.88,4-1.87,8-2.86,12-1.2,4.81-2,9.59-1,14.52.84,4.28,7.57,5.15,9.5,1.24A142.07,142.07,0,0,0,557,531.32a180.9,180.9,0,0,0,5-26.51c1.11-8.75,1.92-17.54,2.81-26.31a100.11,100.11,0,0,0,.78-13.17,63.75,63.75,0,0,0-1.79-13.11,54.07,54.07,0,0,0-5.21-13.64c-2.84-5-8.34-8.9-14.31-7.13a5.2,5.2,0,0,0,2.76,10Z"
     id="path1187"
     style="fill:#ffffff" />
  <path
     d="M500.68,476.68a11.4,11.4,0,0,0,2.84-4.84,12.55,12.55,0,0,0-.07-6A2.6,2.6,0,0,0,500.6,464a2.57,2.57,0,0,0-2.25,2.55,13.29,13.29,0,0,1-.08,2.09l.09-.7a15.78,15.78,0,0,1-1,3.58c-.19.47.23-.52,0,0l-.17.38c-.13.27-.26.53-.4.8-.3.58-.62,1.14-1,1.7a2.6,2.6,0,0,0,4.08,3.15,15.16,15.16,0,0,0,2.91-4.74l-5.11-.69v.14l.09-.69a6.11,6.11,0,0,1-.18.85c0,.14-.09.28-.14.41-.17.5.29-.54,0-.08-.14.25-.28.5-.44.75s.31-.36.1-.13-.23.26-.35.38l4.35,2.53c-.21.44-.25.54-.13.32-.31.37-.38.46-.21.26s.22-.21.34-.3.48-.38.69-.6a4.18,4.18,0,0,0,1-1.74,7.8,7.8,0,0,0,.2-1.74c.1-1.92.12-3.85.09-5.78a2.6,2.6,0,0,0-5.2,0c0,1.12,0,2.23,0,3.34s0,2.16-.13,3.22l.09-.69a1.31,1.31,0,0,1-.06.27c.19-.4.24-.51.14-.34s.51-.51.13-.18c-.19.17-.37.33-.57.49a4.42,4.42,0,0,0-1.42,2.08,2.61,2.61,0,0,0,1.19,2.94,2.68,2.68,0,0,0,3.15-.41,8,8,0,0,0,1.56-2.18A9.73,9.73,0,0,0,503,472a2.6,2.6,0,0,0-.76-1.84,2.72,2.72,0,0,0-1.49-.72,2.52,2.52,0,0,0-1.66.31,3,3,0,0,0-1.19,1.56c-.2.49.23-.49,0,0l-.2.42a9.84,9.84,0,0,1-.5.9q-.26.39-.54.78c-.14.2.4-.48,0,0l-.36.41,4.08,3.15a18.75,18.75,0,0,0,3.18-10.44l-5.11.69a7,7,0,0,1,.22,1l-.09-.69a11.26,11.26,0,0,1,0,2.9l.09-.69a7.35,7.35,0,0,1-.28,1.3c0,.08-.05.16-.08.23s0,.11.11-.25c-.12.1-.21.41-.29.54-.17.31-.46.59-.61.9l.12-.15-.2.24c-.13.16-.26.32-.4.47a2.82,2.82,0,0,0-.76,1.84,2.6,2.6,0,0,0,4.43,1.84Z"
     id="path1189"
     style="fill:#ffffff" />
  <path
     d="M362.32,205.6a5.2,5.2,0,1,0-5.2-5.19,5.25,5.25,0,0,0,5.2,5.19Z"
     id="path1191"
     style="fill:#ffffff" />
  <path
     d="M177,381.12l13.79-11.44L209,354.59a5.75,5.75,0,0,0,2.2-3.13c.46-1.79,1-3.58,1.47-5.36q3.32-11.58,7.55-22.86,1.4-3.74,2.88-7.42.75-1.86,1.53-3.72c.05-.13.26-.61,0,0,.06-.14.12-.27.17-.41.14-.31.27-.63.41-.94l.88-2q3.55-8.07,7.68-15.87A172.84,172.84,0,0,1,243,277.43q1.26-1.86,2.58-3.68c.42-.59.85-1.16,1.28-1.74l.56-.73c.4-.53.1-.14,0,0l.37-.48c1.8-2.29,3.68-4.52,5.67-6.65a84.64,84.64,0,0,1,6.06-5.92c1-.88,2-1.72,3.08-2.55h0l.36-.28.85-.65,1.86-1.4c5.09-3.8,10.3-7.44,15.58-11,11.23-7.54,22.73-14.65,34.36-21.55q15-8.92,30.34-17.4c5.44-3,10.89-6,16.39-8.92l.75-.4a3.46,3.46,0,1,0-3.49-6c-8.74,4.6-17.39,9.41-26,14.27-17.76,10-35.34,20.44-52.37,31.68-8.33,5.49-16.66,11.13-24.42,17.42a99.28,99.28,0,0,0-18.31,20.29c-10.54,14.95-18.29,31.82-24.7,48.89q-3.6,9.56-6.56,19.31c-1,3.26-2,6.54-2.79,9.86,0,.15-.07.3-.11.44l.89-1.52L194.08,358l-17.83,14.8-4.1,3.41a3.48,3.48,0,0,0,0,4.89,3.52,3.52,0,0,0,4.89,0Z"
     id="path1193"
     style="fill:#ffffff" />
  <path
     d="M190,365.87a2,2,0,0,1-.9.41c-8.11,1.3-111,16.76-130.55-35.21C38.21,277,69.05,211.42,83.57,190.81c17.14-24.34,59.1-45.75,81.44-52.85,8.43-2.68,23.56-6.52,29-7h9.55c20.9,0,11.26,9,8,10.83-17.75,10-50.53,23-68.39,33.93C117,191.78,102.32,207,102.86,220.57S100.36,277,133,272.14s79.46-31.29,110.54-51.57c36.43-23.79,58.35-33,66.7-29.76,6.25,2.4,17.31,8,22.51,10.73a1.89,1.89,0,0,1,.16,3.26l-64.83,42.48-.26.2-23.18,21.81a2,2,0,0,0-.36.45l-22.61,40.51a2.12,2.12,0,0,0-.14.31l-13.69,40.12a2,2,0,0,1-.58.84Z"
     id="path1195"
     style="fill:#ffffff" />
  <path
     d="M508.46,206.85s39.11-27.29,86.47-17.81a39.55,39.55,0,0,1,27.26,20.62L657.08,277A108.87,108.87,0,0,0,691,315.83l15.08,10.63a47.61,47.61,0,0,0,42.13,6.36l6.43-2.09a24.05,24.05,0,0,0,16.49-25.47l-4.68-43.34A48.29,48.29,0,0,0,753,233.42l-40.78-41.9a12.12,12.12,0,0,1-2.15-13.86h0a8.17,8.17,0,0,1,11-3.65l56.52,28.31c16.94,7.54,27.65,43.08,29.39,49.28l7.88,55.65c1.82,6.46,4.25,28.7.94,34.54l-4,7.39a105,105,0,0,1-24.33,29.95L778,387.2c-8.2,8.43-10.89,8.48-17.32,12.16-18.47,10.55-61.75,10.77-62.94,10.55-34.52-6.21-108.07-63.43-102.27-62.34l-6-34.78L580,284.88l-17-26.47-18.32-20.54Z"
     id="path1197"
     style="fill:#ffffff" />
  <path
     d="M362.53,199.51a31,31,0,0,1,3.84-3.58,2.61,2.61,0,0,0-1.14-4.34,24.16,24.16,0,0,0-7.4,0,6.51,6.51,0,0,0-3.33,1.31,3.06,3.06,0,0,0,.05,5,9.15,9.15,0,0,0,3.51.9,15,15,0,0,0,7.36-.33c.46-.12.94-.2,1.4-.33.19,0,.14,0-.15,0l.43,0c.14,0,1,.06.39,0l.69-5.1h-.85a2.62,2.62,0,0,0-2.6,2.59,2.65,2.65,0,0,0,2.6,2.6h.85a2.6,2.6,0,0,0,2.55-2.25,2.56,2.56,0,0,0-1.86-2.85,10.22,10.22,0,0,0-4,.17l-1.29.33-.86.2c-.12,0-.77.13-.22.06a13.14,13.14,0,0,1-3.07,0c.58.06-.26,0-.37-.06-.28,0-.55-.09-.82-.15l-.71-.14-.47-.09c-.33-.08-.31-.06.08.06l1.19,1.55-.44,1.85c.16-.15.16-.15,0,0-.28.31.24-.07-.13.1s.09,0,.19,0l.33-.08c.38-.08.76-.14,1.14-.2-.25,0-.25,0,0,0l.57-.06a18.23,18.23,0,0,1,2.09,0c.35,0,.7,0,1,.05l.47,0c.76.07-.53-.09.23,0l-1.15-4.34a31,31,0,0,0-3.84,3.58,2.6,2.6,0,1,0,3.67,3.67Z"
     id="path1199"
     style="fill:#ffffff" />
</svg>
