<svg xmlns="http://www.w3.org/2000/svg" viewBox="0 -0.5 36 36" shape-rendering="crispEdges">
<metadata>Made with Pixels to Svg https://codepen.io/shshaw/pen/XbxvNj</metadata>
<path stroke="#000000" d="M16 2h4M11 3h5M20 3h4M9 4h2M21 4h1M24 4h2M8 5h1M21 5h1M26 5h2M7 6h1M21 6h1M28 6h1M6 7h1M21 7h1M29 7h1M5 8h1M15 8h1M20 8h2M30 8h1M5 9h1M16 9h4M30 9h1M4 10h1M20 10h1M31 10h1M4 11h1M21 11h1M31 11h1M4 12h1M21 12h1M31 12h1M3 13h1M21 13h1M32 13h1M3 14h1M21 14h1M32 14h1M3 15h1M10 15h4M15 15h1M20 15h6M32 15h1M2 16h1M4 16h1M9 16h1M14 16h1M16 16h4M21 16h1M26 16h1M31 16h1M33 16h1M1 17h1M4 17h1M8 17h1M15 17h1M20 17h1M27 17h1M31 17h1M34 17h1M1 18h1M5 18h1M8 18h1M16 18h1M19 18h1M27 18h2M30 18h1M34 18h1M1 19h1M5 19h1M7 19h1M14 19h1M16 19h1M19 19h1M21 19h1M28 19h1M30 19h1M34 19h1M1 20h1M5 20h1M7 20h1M13 20h1M15 20h1M20 20h1M22 20h1M28 20h1M30 20h1M34 20h1M1 21h1M5 21h1M7 21h1M13 21h3M20 21h3M28 21h1M30 21h1M34 21h1M1 22h1M5 22h1M7 22h1M13 22h3M20 22h3M28 22h1M30 22h1M34 22h1M1 23h1M5 23h1M7 23h1M13 23h3M20 23h3M28 23h1M30 23h1M34 23h1M1 24h1M5 24h1M7 24h1M14 24h1M21 24h1M28 24h1M30 24h1M34 24h1M1 25h1M5 25h1M7 25h1M28 25h1M30 25h1M34 25h1M2 26h1M5 26h1M8 26h1M27 26h1M30 26h1M33 26h1M3 27h1M5 27h1M8 27h1M17 27h2M27 27h1M30 27h1M32 27h1M4 28h3M8 28h1M27 28h1M29 28h3M6 29h1M8 29h1M26 29h2M29 29h1M7 30h1M9 30h1M17 30h4M26 30h1M28 30h1M8 31h1M10 31h1M15 31h2M21 31h1M25 31h1M27 31h1M9 32h3M24 32h3M12 33h2M22 33h2M14 34h2M20 34h2M16 35h4" />
<path stroke="#57b8e8" d="M16 3h4M15 4h1M17 4h4M15 5h1M17 5h4M15 6h2M20 6h1M9 7h3M15 7h6M8 8h3M16 8h4M8 9h2M7 10h2M16 10h4M7 11h1M15 11h1M17 11h4M15 12h1M17 12h4M15 13h1M17 13h4M15 14h2M20 14h1M16 15h4M3 16h1M32 16h1M2 17h2M32 17h2M2 18h3M31 18h3M3 19h2M31 19h2M4 20h1M31 20h1M4 21h1M31 21h1M2 22h1M4 22h1M31 22h1M33 22h1M2 23h1M4 23h1M31 23h1M33 23h1M2 24h3M31 24h3M3 25h2M31 25h2" />
<path stroke="#3b6eb6" d="M11 4h4M22 4h2M9 5h6M22 5h4M8 6h7M22 6h6M7 7h2M12 7h3M22 7h7M6 8h2M11 8h4M22 8h8M6 9h2M10 9h6M20 9h10M5 10h2M9 10h7M21 10h10M5 11h2M8 11h7M22 11h9M5 12h10M22 12h9M4 13h11M22 13h10M4 14h11M22 14h10M4 15h6M14 15h1M26 15h6M5 16h4M15 16h1M20 16h1M27 16h4M5 17h3M16 17h4M28 17h3M6 18h2M17 18h2M29 18h1M6 19h1M17 19h2M29 19h1M6 20h1M17 20h2M29 20h1M6 21h1M17 21h2M29 21h1M6 22h1M29 22h1M6 23h1M29 23h1M6 24h1M29 24h1M6 25h1M29 25h1M6 26h2M28 26h2M6 27h2M28 27h2M7 28h1M28 28h1M7 29h1M28 29h1M8 30h1M27 30h1M9 31h1M26 31h1" />
<path stroke="#ffffff" d="M16 4h1M16 5h1M17 6h3M16 11h1M16 12h1M16 13h1M17 14h3M11 17h4M21 17h4M10 18h6M20 18h6M2 19h1M9 19h5M15 19h1M20 19h1M22 19h5M33 19h1M2 20h2M9 20h4M14 20h1M16 20h1M19 20h1M21 20h1M23 20h4M32 20h2M2 21h2M9 21h4M16 21h1M19 21h1M23 21h4M32 21h2M3 22h1M9 22h4M16 22h1M19 22h1M23 22h4M32 22h1M3 23h1M9 23h4M16 23h1M19 23h1M23 23h4M32 23h1M9 24h5M15 24h2M19 24h2M22 24h5M10 25h6M20 25h6M11 26h4M21 26h4" />
<path stroke="#fe6054" d="M10 16h4M22 16h4M9 17h2M25 17h2M9 18h1M26 18h1M8 19h1M27 19h1M8 20h1M27 20h1M8 21h1M27 21h1M8 22h1M27 22h1M8 23h1M27 23h1M8 24h1M27 24h1M8 25h2M26 25h2M25 26h2M21 27h6M17 28h2M23 28h4M9 29h1M23 29h3M23 30h3M22 31h3M12 32h1M17 32h2M21 32h3M14 33h1M20 33h2M16 34h1M19 34h1" />
<path stroke="#ffd9b5" d="M17 22h2M17 23h2M17 24h2M16 25h4M9 26h2M15 26h6M9 27h8M19 27h2M9 28h8M19 28h4M10 29h13M10 30h7M21 30h2M11 31h4M17 31h4M13 32h4M19 32h2M15 33h5M17 34h2" />
<path stroke="#3c70b7" d="M2 25h1M33 25h1M3 26h2M31 26h2M4 27h1M31 27h1" />
</svg>