<?xml version="1.0" encoding="UTF-8" standalone="no"?>
<!-- Created with Inkscape (http://www.inkscape.org/) -->

<svg
   version="1.1"
   id="svg2"
   width="1133.8586"
   height="1133.8586"
   viewBox="0 0 1133.8586 1133.8586"
   sodipodi:docname="externallogohemlet.svg"
   inkscape:version="1.2.2 (b0a8486541, 2022-12-01)"
   xmlns:inkscape="http://www.inkscape.org/namespaces/inkscape"
   xmlns:sodipodi="http://sodipodi.sourceforge.net/DTD/sodipodi-0.dtd"
   xmlns="http://www.w3.org/2000/svg"
   xmlns:svg="http://www.w3.org/2000/svg">
  <defs
     id="defs6">
    <clipPath
       clipPathUnits="userSpaceOnUse"
       id="clipPath18">
      <path
         d="M 0,850.394 H 850.394 V 0 H 0 Z"
         id="path16" />
    </clipPath>
  </defs>
  <sodipodi:namedview
     id="namedview4"
     pagecolor="#ffffff"
     bordercolor="#000000"
     borderopacity="0.25"
     inkscape:showpageshadow="2"
     inkscape:pageopacity="0.0"
     inkscape:pagecheckerboard="0"
     inkscape:deskcolor="#d1d1d1"
     showgrid="false"
     inkscape:zoom="0.76817333"
     inkscape:cx="234.32212"
     inkscape:cy="569.53292"
     inkscape:window-width="1920"
     inkscape:window-height="1044"
     inkscape:window-x="0"
     inkscape:window-y="0"
     inkscape:window-maximized="1"
     inkscape:current-layer="g10">
    <inkscape:page
       x="0"
       y="0"
       id="page8"
       width="1133.8586"
       height="1133.8586" />
  </sodipodi:namedview>
  <g
     id="g10"
     inkscape:groupmode="layer"
     inkscape:label="Page 1"
     transform="matrix(1.3333333,0,0,-1.3333333,0,1133.8587)">
    <g
       id="g12">
      <g
         id="g14"
         clip-path="url(#clipPath18)">
        <g
           id="g20"
           transform="translate(656.6996,351.5718)">
          <path
             d="m 0,0 h -8.846 v -13.249 h -13.269 v -13.28 h -13.27 v -13.27 h -26.538 v -17.669 h -13.269 v -13.259 h -13.27 v -13.338 h -13.269 v -8.766 h -44.231 v 13.244 h 13.269 v 13.243 h 13.27 v 13.27 h 13.273 V 0 h 13.265 v 101.739 h -13.271 v 26.55 h -13.267 v 13.275 h -57.5 v -13.26 h -13.27 v -13.319 h -13.269 V 88.611 h -13.269 V 57.342 l -15.237,0.001 -15.237,-0.001 v 31.269 h -13.27 v 26.374 h -13.269 v 13.319 h -13.269 v 13.26 h -57.5 v -13.275 h -13.268 v -26.55 h -13.271 V 0 h 13.266 v -53.074 h 13.273 v -13.27 h 13.269 v -13.243 h 13.269 v -13.244 h -44.23 v 8.766 h -13.27 v 13.338 h -13.269 v 13.259 h -13.269 v 17.669 h -26.539 v 13.27 h -13.269 v 13.28 H -455.09 V 0 h -8.846 v 132.687 h 8.846 v 13.27 h 13.269 v 39.82 h 13.269 v 39.799 h 13.27 v 26.529 h 4.423 v 4.441 h 8.846 v 13.267 h 13.269 v 13.26 h 13.269 v 13.242 h 13.27 v 13.243 h 30.961 V 322.8 h 66.346 v 9.014 l 32.93,10e-4 32.929,-10e-4 V 322.8 h 66.346 v -13.242 h 30.962 v -13.243 h 13.269 v -13.242 h 13.27 v -13.26 h 13.269 v -13.267 h 8.846 v -4.441 h 4.423 v -26.529 h 13.269 v -39.799 h 13.27 v -39.82 h 13.269 v -13.27 H 0 Z m 76.657,441.627 c -3.232,-0.454 -5.67,-2.271 -8.305,-3.562 -11.136,-5.458 -22.388,-10.626 -34.184,-14.537 -45.12,-14.96 -91.178,-18.135 -138.097,-11.23 -42.166,6.205 -81.434,20.053 -117.115,43.587 -4.759,3.139 -9.13,8.734 -14.458,8.633 -5.302,-0.101 -9.767,-5.486 -14.508,-8.675 -56.941,-38.3 -119.516,-52.605 -187.52,-44.293 -28.202,3.447 -55.325,10.956 -81.884,20.761 -7.05,2.602 -14.073,5.278 -21.11,7.92 -1.584,-3.06 -0.952,-5.866 -0.92,-8.554 0.42,-35.585 0.576,-71.17 1.37,-106.753 0.942,-42.233 0.679,-84.487 1.732,-126.725 0.532,-21.342 1.333,-42.659 2.56,-63.975 2.129,-36.979 8.099,-73.333 16.94,-109.251 22.58,-91.738 66.512,-171.464 134.52,-237.541 38.946,-37.84 82.723,-69.261 129.909,-95.978 17.785,-10.071 12.455,-10.745 31.386,0.111 45.931,26.34 89.612,55.954 129.335,91.139 50.791,44.988 90.382,98.062 117.358,160.443 34.351,79.433 50.144,162.856 51.969,248.852 1.729,81.484 1.369,163.013 1.888,244.523 0.011,1.678 0.629,3.595 -0.866,5.105"
             style="fill:#ffffff;fill-opacity:1;fill-rule:nonzero;stroke:none"
             id="path22" />
        </g>
      </g>
    </g>
  </g>
</svg>
